<svg width="20" height="20" viewBox="0 0 20 20" fill="none" xmlns="http://www.w3.org/2000/svg">
<path d="M6.44687 20C7.46418 20 8.28881 19.1472 8.28881 18.0952C8.28881 17.0433 7.46418 16.1904 6.44687 16.1904C5.42963 16.1904 4.60498 17.0433 4.60498 18.0952C4.60498 19.1472 5.42963 20 6.44687 20Z" fill="#579937"/>
<path d="M16.5772 20C17.5945 20 18.4192 19.1472 18.4192 18.0952C18.4192 17.0433 17.5945 16.1904 16.5772 16.1904C15.56 16.1904 14.7354 17.0433 14.7354 18.0952C14.7354 19.1472 15.56 20 16.5772 20Z" fill="#579937"/>
<path fill-rule="evenodd" clip-rule="evenodd" d="M19.0787 3.80952H4.65448L4.13069 1.47437C4.03388 1.04275 3.81775 0.689111 3.48229 0.413467C3.14684 0.137822 2.76488 0 2.33642 0H0.920956C0.412326 0 0 0.426395 0 0.952379C0 1.47836 0.412326 1.90476 0.920956 1.90476H2.33642L2.76366 3.80952H2.76287L5.13478 14.4987C5.18278 14.7151 5.29072 14.8924 5.45861 15.0307C5.6265 15.1689 5.81776 15.2381 6.03239 15.2381H16.7541C16.9651 15.2381 17.1537 15.171 17.3201 15.037C17.4864 14.903 17.5954 14.7303 17.6471 14.5187L19.9717 4.99498C20.0064 4.85262 20.0092 4.7096 19.98 4.56592C19.9508 4.42223 19.8925 4.29247 19.8053 4.17664C19.718 4.06081 19.6106 3.97066 19.483 3.9062C19.3555 3.84175 19.2207 3.80952 19.0787 3.80952Z" fill="#579937"/>
<g style="mix-blend-mode:hard-light">
<g style="mix-blend-mode:hard-light">
<path fill-rule="evenodd" clip-rule="evenodd" d="M5.5978 6.92714C5.58915 6.89037 5.58266 6.85314 5.57178 6.81559C5.57178 6.77797 5.57178 6.74023 5.57178 6.70235C5.57178 6.43938 5.66169 6.21491 5.84152 6.02894C6.02135 5.84298 6.23842 5.75 6.49275 5.75C6.70519 5.75 6.89494 5.81789 7.06194 5.95368C7.22894 6.08946 7.3375 6.2641 7.38769 6.47763L8.72269 12.1618C8.73132 12.1986 8.73794 12.2361 8.74225 12.2737C8.74663 12.3113 8.74881 12.349 8.74881 12.3869C8.74881 12.6499 8.65888 12.8744 8.47907 13.0603C8.29925 13.2463 8.08219 13.3393 7.82788 13.3393C7.61538 13.3393 7.42569 13.2714 7.25863 13.1356C7.09163 12.9998 6.98307 12.8252 6.93294 12.6117L5.5978 6.92714ZM11.0252 6.50128C10.9751 6.28776 10.8664 6.11312 10.6994 5.97734C10.5324 5.84155 10.3427 5.77366 10.1303 5.77366C9.87594 5.77366 9.65888 5.86664 9.479 6.0526C9.29919 6.23856 9.20932 6.46304 9.20932 6.72601C9.20932 6.76388 9.21144 6.80163 9.21581 6.83924C9.22019 6.8768 9.22669 6.91402 9.23532 6.9508L10.5704 12.6354C10.6206 12.8488 10.7291 13.0235 10.8962 13.1593C11.0632 13.2951 11.2529 13.3629 11.4654 13.3629C11.7197 13.3629 11.9368 13.2699 12.1166 13.084C12.2964 12.898 12.3863 12.6736 12.3863 12.4106C12.3863 12.3727 12.3841 12.3349 12.3798 12.2973C12.3754 12.2598 12.3689 12.2225 12.3603 12.1858L11.0252 6.50128Z" fill="white" fill-opacity="0.6"/>
</g>
</g>
</svg>
