<svg width="32" height="32" viewBox="0 0 32 32" fill="none" xmlns="http://www.w3.org/2000/svg">
<rect width="32" height="32" rx="8" fill="#579937"/>
<g clip-path="url(#clip0_24_66)">
<g filter="url(#filter0_d_24_66)">
<path d="M19.6567 11.6204C19.8393 11.4361 20.0875 11.3315 20.347 11.3296C20.6066 11.3277 20.8563 11.4286 21.0416 11.6102C21.227 11.7919 21.3329 12.0395 21.3362 12.299C21.3395 12.5585 21.24 12.8088 21.0593 12.9951L15.8327 19.5291C15.7429 19.6258 15.6345 19.7034 15.5141 19.7572C15.3937 19.8111 15.2636 19.8402 15.1317 19.8427C14.9998 19.8451 14.8687 19.821 14.7463 19.7717C14.6239 19.7224 14.5127 19.649 14.4193 19.5558L10.954 16.0918C10.7699 15.9075 10.6664 15.6577 10.6665 15.3972C10.6666 15.1367 10.7701 14.8869 10.9543 14.7028C11.1386 14.5186 11.3884 14.4152 11.6489 14.4153C11.9094 14.4153 12.1592 14.5189 12.3433 14.7031L15.084 17.4444L19.6307 11.6511C19.6389 11.6406 19.6478 11.6306 19.6573 11.6211L19.6567 11.6204Z" fill="white"/>
</g>
</g>
<defs>
<filter id="filter0_d_24_66" x="10.6665" y="11.3296" width="10.6697" height="10.5132" filterUnits="userSpaceOnUse" color-interpolation-filters="sRGB">
<feFlood flood-opacity="0" result="BackgroundImageFix"/>
<feColorMatrix in="SourceAlpha" type="matrix" values="0 0 0 0 0 0 0 0 0 0 0 0 0 0 0 0 0 0 127 0" result="hardAlpha"/>
<feOffset dy="2"/>
<feColorMatrix type="matrix" values="0 0 0 0 0 0 0 0 0 0 0 0 0 0 0 0 0 0 0.1 0"/>
<feBlend mode="normal" in2="BackgroundImageFix" result="effect1_dropShadow_24_66"/>
<feBlend mode="normal" in="SourceGraphic" in2="effect1_dropShadow_24_66" result="shape"/>
</filter>
<clipPath id="clip0_24_66">
<rect width="10.6667" height="10.6667" fill="white" transform="translate(10.6667 10.6665)"/>
</clipPath>
</defs>
</svg>
