<svg width="100" height="100" viewBox="0 0 100 100" fill="none" xmlns="http://www.w3.org/2000/svg">
<path d="M65.1641 1.56459L49.8362 10.5736L33.6887 0.995605L0.819824 23.6604L16.0657 33.8074V75.8178L49.8362 55.0497L83.1149 75.8178V33.8074L99.1805 23.0914L65.1641 1.56459Z" fill="white"/>
<path d="M16.0656 76.7662C15.9016 76.7662 15.7377 76.7662 15.6557 76.6714C15.4098 76.4817 15.2459 76.1972 15.2459 75.8179V34.2816L0.409836 24.4192C0.163934 24.3243 0 23.945 0 23.6605C0 23.376 0.163934 22.9967 0.409836 22.807L33.2787 0.142247C33.5246 -0.0474158 33.8525 -0.0474158 34.0984 0.142247L49.918 9.53058L64.7541 0.711238C65 0.521574 65.2459 0.616406 65.4918 0.711238L99.5082 22.238C99.7541 22.4277 99.918 22.7122 99.918 23.0915C99.918 23.4708 99.7541 23.7553 99.5082 23.945L83.8525 34.3765V75.9127C83.8525 76.2921 83.6885 76.5766 83.4426 76.7662C83.1967 76.9559 82.8689 76.9559 82.623 76.7662L49.8361 56.0929L16.4754 76.6714C16.3115 76.7662 16.2295 76.7662 16.0656 76.7662ZM2.45902 23.6605L16.4754 32.954C16.7213 33.1437 16.8852 33.4282 16.8852 33.8075V74.3006L49.4262 54.1963C49.6721 54.0066 50 54.0066 50.1639 54.1963L82.2131 74.3006V33.8075C82.2131 33.4282 82.3771 33.1437 82.623 32.954L97.541 23.0915L65.082 2.7027L50.8197 11.0479C50.8197 11.1427 50.7377 11.1427 50.7377 11.2376C50.4918 11.7117 50 11.8065 49.5902 11.522L49.4262 11.3324H49.3443L33.6885 2.03888L2.45902 23.6605Z" fill="#6A576D"/>
<path d="M49.8359 10.5737L83.1146 33.8075V75.8179L49.8359 55.0498V10.5737Z" fill="#D196A1"/>
<path d="M49.8359 10.5737L16.0654 33.8075V75.8179L49.8359 55.0498V10.5737Z" fill="#D196A1"/>
<path d="M83.115 76.7663C82.951 76.7663 82.8691 76.7664 82.7051 76.6715L49.4264 55.8086C49.1805 55.6189 49.0166 55.3344 49.0166 54.9551V10.5739C49.0166 10.1945 49.1805 9.91004 49.4264 9.72037C49.6723 9.53071 50.0002 9.53071 50.2461 9.72037L83.5248 32.9541C83.7707 33.1438 83.9346 33.4283 83.9346 33.8076V75.9129C83.9346 76.2922 83.7707 76.5767 83.5248 76.7663H83.115ZM50.6559 54.4809L82.2953 74.3007V34.2818L50.6559 12.2808V54.4809Z" fill="#6A576D"/>
<path d="M16.0658 76.7663C15.9018 76.7663 15.7379 76.7664 15.6559 76.6715C15.41 76.4819 15.2461 76.1974 15.2461 75.818V33.8076C15.2461 33.4283 15.41 33.1438 15.6559 32.9541L49.4264 9.72037C49.6723 9.53071 50.0002 9.53071 50.2461 9.72037C50.492 9.91004 50.6559 10.1945 50.6559 10.5739V55.0499C50.6559 55.4292 50.492 55.7137 50.2461 55.9034L16.4756 76.7663H16.0658ZM16.8854 34.2818V74.3007L49.0166 54.4809V12.2808L16.8854 34.2818Z" fill="#6A576D"/>
<path d="M49.8359 54.5759L35.6556 48.1273L16.0654 33.7129V75.8181L49.8359 99.0519L83.1146 75.8181V33.7129L68.1146 46.61L49.8359 54.5759Z" fill="#FFB8C5"/>
<path d="M49.8363 99.9999C49.6723 99.9999 49.5084 99.9999 49.4264 99.905L15.6559 76.6713C15.41 76.4816 15.2461 76.1971 15.2461 75.8178V33.7125C15.2461 33.3332 15.41 33.0487 15.6559 32.859C15.9018 32.6694 16.2297 32.6694 16.4756 32.859L36.0658 47.2735L49.9182 53.6272L67.7871 45.7561L82.6231 32.9539C82.869 32.7642 83.1969 32.6694 83.4428 32.859C83.6887 33.0487 83.8527 33.3332 83.8527 33.7125V75.8178C83.8527 76.1971 83.6887 76.4816 83.4428 76.6713L50.1641 99.905C50.1641 99.905 50.0002 99.9999 49.8363 99.9999ZM16.8854 75.3436L49.8363 98.0084L82.2953 75.3436V35.6092L68.6067 47.3683C68.5248 47.4631 68.4428 47.4631 68.4428 47.4631L50.1641 55.5238C50.0002 55.6186 49.7543 55.6186 49.5904 55.5238L35.41 49.0753C35.3281 49.0753 35.3281 48.9804 35.2461 48.9804L16.8854 35.5143V75.3436Z" fill="#6A576D"/>
<path d="M49.8359 99.0519L83.1146 75.8181V33.7129L65.7376 48.0325L49.8359 54.5759V99.0519Z" fill="#FFB8C5"/>
<path d="M49.8363 100C49.6723 100 49.5904 100 49.4264 99.9052C49.1805 99.7155 49.0166 99.431 49.0166 99.0517V54.5756C49.0166 54.1963 49.2625 53.817 49.5904 53.7221L65.41 47.1787L82.6232 32.954C82.8691 32.7643 83.1969 32.7643 83.4428 32.8592C83.6887 33.0488 83.8527 33.3333 83.8527 33.7126V75.8179C83.8527 76.1972 83.6887 76.4817 83.4428 76.6714L50.1641 99.9052C50.1641 99.9052 50.0002 100 49.8363 100ZM50.6559 55.2394V97.3447L82.2953 75.3437V35.6093L66.2297 48.7909C66.1478 48.8857 66.0658 48.8857 66.0658 48.8857L50.6559 55.2394Z" fill="#6A576D"/>
<path d="M0.819824 43.8599L16.0657 33.7129L49.8362 54.5759L33.6067 65.2918L0.819824 43.8599Z" fill="white"/>
<path d="M49.8359 54.5758L65.0818 64.7227L99.1802 44.4288L83.1146 33.8076L49.8359 54.5758Z" fill="white"/>
<path d="M33.6066 66.2402C33.4426 66.2402 33.3607 66.2402 33.1967 66.1453L0.409836 44.7134C0.163934 44.5237 0 44.2392 0 43.8599C0 43.4806 0.163934 43.1961 0.409836 43.0064L15.6557 32.9543C15.9016 32.7646 16.2295 32.7646 16.4754 32.9543L50.2459 53.8172C50.4918 54.0069 50.6557 54.2914 50.6557 54.6707C50.6557 55.05 50.4918 55.3345 50.2459 55.5242L34.0164 66.1453C33.9344 66.2402 33.7705 66.2402 33.6066 66.2402ZM2.45902 43.8599L33.6066 64.2487L48.1148 54.6707L16.0656 34.8509L2.45902 43.8599Z" fill="#6A576D"/>
<path d="M65.0822 65.6708C64.9182 65.6708 64.8363 65.6708 64.6723 65.576L49.4264 55.429C49.1805 55.2393 49.0166 54.9548 49.0166 54.5755C49.0166 54.1962 49.1805 53.9117 49.4264 53.722L82.7051 32.859C82.951 32.6694 83.2789 32.6694 83.5248 32.859L99.5904 43.575C99.8363 43.7647 100 44.0492 100 44.4285C100 44.8078 99.8363 45.0923 99.5904 45.282L65.492 65.576C65.3281 65.6708 65.2461 65.6708 65.0822 65.6708ZM51.5576 54.5755L65.1641 63.5845L97.5412 44.3337L83.033 34.8505L51.5576 54.5755Z" fill="#6A576D"/>
</svg>
