<svg width="20" height="20" viewBox="0 0 20 20" fill="none" xmlns="http://www.w3.org/2000/svg">
<g clip-path="url(#clip0_11_234)">
<path d="M14.3056 0C15.8488 0 17.1451 0.578231 18.1944 1.73469C19.2438 2.89116 19.7685 4.30272 19.7685 5.96939C19.7685 6.78572 19.6142 7.61055 19.3056 8.44388C18.9969 9.27721 18.6574 10.017 18.287 10.6633C17.9167 11.3095 17.2917 12.1429 16.412 13.1633C15.5324 14.1837 14.7917 15.0085 14.1898 15.6378C13.588 16.267 12.6235 17.2279 11.2963 18.5204L9.86111 19.949L8.42592 18.5714C7.12963 17.2449 6.17284 16.267 5.55555 15.6378C4.93827 15.0085 4.18981 14.1837 3.31018 13.1633C2.43056 12.1429 1.80556 11.3095 1.43519 10.6633C1.06481 10.017 0.733025 9.27721 0.439815 8.44388C0.146605 7.61055 0 6.78572 0 5.96939C0 4.30272 0.524691 2.89116 1.57407 1.73469C2.62346 0.578231 3.90432 0 5.41667 0C7.20679 0 8.68827 0.765306 9.86111 2.29592C11.0339 0.765306 12.5154 0 14.3056 0ZM9.9537 16.9388C11.466 15.4422 12.5694 14.3282 13.2639 13.5969C13.9583 12.8656 14.7222 11.9898 15.5556 10.9694C16.3889 9.94898 16.9676 9.05612 17.2917 8.29082C17.6157 7.52551 17.7778 6.7517 17.7778 5.96939C17.7778 4.88095 17.446 3.97959 16.7824 3.26531C16.1188 2.55102 15.2932 2.19388 14.3056 2.19388C13.5648 2.19388 12.8627 2.43197 12.1991 2.90816C11.5355 3.38435 11.0648 3.9966 10.787 4.7449H8.93518C8.68827 3.9966 8.23302 3.38435 7.56944 2.90816C6.90586 2.43197 6.18827 2.19388 5.41667 2.19388C4.42901 2.19388 3.61111 2.55102 2.96296 3.26531C2.31481 3.97959 1.99074 4.88095 1.99074 5.96939C1.99074 6.7517 2.14506 7.52551 2.4537 8.29082C2.76235 9.05612 3.34105 9.94898 4.18981 10.9694C5.03858 11.9898 5.81018 12.8656 6.50463 13.5969C7.19907 14.3282 8.28704 15.4422 9.76852 16.9388L9.86111 17.0408L9.9537 16.9388Z" fill="#579937"/>
</g>
<defs>
<clipPath id="clip0_11_234">
<rect width="20" height="20" fill="white"/>
</clipPath>
</defs>
</svg>
