<svg width="24" height="27" viewBox="0 0 24 27" fill="none" xmlns="http://www.w3.org/2000/svg">
<path d="M20.4361 5.41918C19.9395 4.86028 19.3499 4.41692 18.701 4.11443C18.0521 3.81194 17.3566 3.65625 16.6541 3.65625C15.9517 3.65625 15.2562 3.81194 14.6073 4.11443C13.9583 4.41692 13.3688 4.86028 12.8722 5.41918L11.8416 6.57856L10.8111 5.41918C9.80805 4.29077 8.44765 3.65683 7.02914 3.65683C5.61064 3.65683 4.25023 4.29077 3.2472 5.41918C2.24416 6.5476 1.68066 8.07805 1.68066 9.67387C1.68066 11.2697 2.24416 12.8001 3.2472 13.9286L4.27775 15.0879L11.8416 23.5973L19.4055 15.0879L20.4361 13.9286C20.9329 13.3699 21.327 12.7066 21.5959 11.9766C21.8647 11.2466 22.0031 10.4641 22.0031 9.67387C22.0031 8.88365 21.8647 8.10117 21.5959 7.37114C21.327 6.64111 20.9329 5.97782 20.4361 5.41918Z" stroke="#B89199" stroke-width="1.2" stroke-linecap="round" stroke-linejoin="round"/>
</svg>
