<svg width="21" height="21" viewBox="0 0 21 21" fill="none" xmlns="http://www.w3.org/2000/svg">
<path d="M20.4919 4.30353C20.1661 3.46138 19.6963 2.69823 19.1088 2.05681C18.5208 1.41347 17.8276 0.902212 17.0669 0.550847C16.278 0.185057 15.4319 -0.0021756 14.5777 1.90724e-05C13.3793 1.90724e-05 12.2101 0.366333 11.194 1.05826C10.9509 1.22378 10.72 1.40558 10.5012 1.60366C10.2824 1.40558 10.0515 1.22378 9.80841 1.05826C8.79233 0.366333 7.62309 1.90724e-05 6.42469 1.90724e-05C5.56175 1.90724e-05 4.72554 0.184533 3.93552 0.550847C3.17224 0.903594 2.48431 1.41101 1.89362 2.05681C1.30535 2.69751 0.835424 3.46084 0.510475 4.30353C0.172589 5.17997 0 6.11068 0 7.06853C0 7.9721 0.165297 8.91366 0.493459 9.87151C0.768144 10.672 1.16194 11.5023 1.66512 12.3407C2.46243 13.6676 3.55874 15.0515 4.92001 16.4543C7.17582 18.7797 9.40976 20.3861 9.50456 20.4512L10.0807 20.8637C10.3359 21.0455 10.6641 21.0455 10.9193 20.8637L11.4954 20.4512C11.5902 20.3834 13.8217 18.7797 16.08 16.4543C17.4412 15.0515 18.5375 13.6676 19.3349 12.3407C19.838 11.5023 20.2343 10.672 20.5065 9.87151C20.8347 8.91366 21 7.9721 21 7.06853C21.0024 6.11068 20.8298 5.17997 20.4919 4.30353V4.30353Z" fill="#9F394D"/>
</svg>
