<svg width="40" height="44" viewBox="0 0 40 44" fill="none" xmlns="http://www.w3.org/2000/svg">
<path d="M19.3649 0.183969C18.5292 0.479511 17.2234 1.93449 17.0405 2.77564C16.8316 3.685 17.0405 4.36702 17.7457 5.25365C19.2082 7.04963 22.6556 6.98143 23.9614 5.11724C24.5882 4.25335 24.6404 2.4801 24.1181 1.59348C23.3868 0.365841 20.9319 -0.361646 19.3649 0.183969Z" fill="#85004B"/>
<path d="M25.999 2.54781C26.1034 4.43473 26.0512 4.82121 25.555 5.70783C24.9021 6.89 23.1784 8.34498 21.6898 9.02699C21.1152 9.27707 19.3132 9.91362 17.6679 10.4365C9.23229 13.1191 4.24407 15.4152 2.49428 17.3931C1.11012 18.939 1.81526 20.7805 4.19184 21.8944C4.89698 22.2354 4.9231 22.2354 6.98629 20.7577C10.512 18.257 13.6198 17.1658 21.8726 15.4834C30.6738 13.7102 32.8153 12.9145 33.8861 11.0731C34.4868 10.05 34.4606 9.43621 33.7033 7.45835C33.2071 6.18525 31.3789 3.70724 30.2037 2.75242C29.368 2.0704 26.4168 0.410817 26.0251 0.410817C25.9467 0.410817 25.9206 1.36564 25.999 2.54781ZM29.9164 6.45805C30.3081 6.68539 30.491 7.0264 30.491 7.50382C30.491 9.1634 28.3755 9.64081 27.5137 8.1631C27.0697 7.43562 27.3831 6.61719 28.1927 6.32165C29.0546 6.02611 29.2635 6.04884 29.9164 6.45805ZM23.8835 11.3686C25.0065 12.278 24.3797 13.8239 22.9172 13.8239C22.0032 13.8239 21.2719 13.0964 21.2719 12.187C21.2719 10.9366 22.7605 10.4592 23.8835 11.3686ZM15.6047 13.5965C16.2315 14.1421 16.2576 14.324 15.7352 15.1879C15.2129 16.0745 14.0377 16.12 13.1236 15.3016C12.3401 14.6423 12.314 14.5059 13.0192 13.7329C13.6721 13.0054 14.8473 12.9372 15.6047 13.5965Z" fill="#85004B"/>
<path d="M13.5934 2.91219C12.7316 3.20774 12.5487 4.04889 13.2539 4.54904C13.5673 4.77638 13.9851 4.95825 14.168 4.95825C14.6381 4.95825 15.3954 4.13983 15.291 3.68515C15.1604 3.1168 14.2724 2.68485 13.5934 2.91219Z" fill="#85004B"/>
<path d="M9.59715 6.34465C8.97036 7.02667 8.10852 8.07243 7.63843 8.70898C6.48931 10.2776 4.03438 14.2788 4.21719 14.2788C4.32166 14.2788 4.81787 14.0287 5.36631 13.7332C6.98552 12.8466 9.8322 11.6644 12.2871 10.8687L14.6115 10.1185L13.9847 9.70928C13.6713 9.48194 13.3057 9.27733 13.2273 9.27733C12.8617 9.27733 11.582 7.39041 11.1641 6.27645L10.7202 5.09428L9.59715 6.34465Z" fill="#85004B"/>
<path d="M14.7159 6.18583C13.9063 6.89059 13.8541 7.4362 14.5854 8.23189C15.3166 9.02758 16.1785 8.98211 17.0142 8.11822C17.7977 7.2998 17.876 6.75418 17.2492 6.25403C16.3613 5.57201 15.4211 5.54928 14.7159 6.18583Z" fill="#85004B"/>
<path d="M35.1132 13.0968C34.4603 13.7106 29.8638 15.7339 27.8789 16.2796C26.2075 16.7342 25.5807 16.8706 21.0887 17.5981C15.996 18.4166 12.3397 19.8488 9.33637 22.1677L8.16113 23.077L9.57141 23.3498C12.4964 23.8954 19.3389 24.3274 22.6557 24.1683C29.7071 23.85 35.8444 22.1904 37.6464 20.1216C38.6389 18.9849 38.9784 17.6891 38.5866 16.6433C38.1949 15.5748 36.9935 13.8698 36.1578 13.1877C35.5571 12.6876 35.531 12.6876 35.1132 13.0968ZM34.4341 17.2344C35.0609 17.5299 35.1132 18.7348 34.4864 19.3259C33.8596 19.9397 32.7105 19.8488 32.0837 19.144C31.4308 18.4166 31.4046 18.1665 31.9531 17.5072C32.3971 16.9616 33.5462 16.8252 34.4341 17.2344ZM18.8949 18.7803C19.4956 19.1213 19.7829 19.917 19.5217 20.5081C19.2867 21.0537 18.5554 21.5538 17.9547 21.5538C17.4324 21.5538 16.3878 20.4399 16.3878 19.8715C16.3878 18.9622 18.007 18.2574 18.8949 18.7803Z" fill="#85004B"/>
<path d="M0.012631 21.2128C0.273794 21.9403 2.15417 29.4425 3.3294 34.3985C3.90396 36.8992 4.55687 39.2863 4.7658 39.6728C6.14996 42.3554 14.1154 44.356 21.872 43.9468C28.2966 43.6285 32.8931 42.4236 34.9824 40.4912C35.7659 39.7865 36.1315 38.3997 38.717 27.01C39.3699 24.0773 39.9445 21.5083 39.9967 21.3265C40.0489 21.1219 39.4744 21.5083 38.717 22.1449C36.9933 23.6681 33.8855 24.9866 30.0986 25.8051C27.3303 26.3961 26.9908 26.4189 20.305 26.4416C12.8619 26.4416 12.1306 26.3734 7.76918 25.1685C4.71357 24.3046 3.53833 23.7363 1.47514 22.0539C0.456608 21.2355 -0.0918342 20.94 0.012631 21.2128Z" fill="#85004B"/>
</svg>
