<svg width="20" height="20" viewBox="0 0 20 20" fill="none" xmlns="http://www.w3.org/2000/svg">
<path fill-rule="evenodd" clip-rule="evenodd" d="M0 10C0 4.579 4.579 0 10 0C15.421 0 20 4.579 20 10C20 13.19 18.408 16.078 16 17.924V18H15.898C14.23 19.245 12.187 20 10 20C7.813 20 5.77 19.245 4.102 18H4V17.924C1.592 16.078 0 13.189 0 10ZM7.12347 15.236C6.59154 15.6639 6.22136 16.2604 6.074 16.927C7.242 17.604 8.584 18 10 18C11.416 18 12.758 17.604 13.926 16.927C13.7785 16.2605 13.4082 15.6641 12.8764 15.2362C12.3445 14.8083 11.6827 14.5744 11 14.573H9C8.3173 14.5742 7.6554 14.808 7.12347 15.236ZM13.7677 13.4117C14.5877 13.9574 15.2286 14.7329 15.61 15.641C17.077 14.182 18 12.176 18 10C18 5.663 14.337 2 10 2C5.663 2 2 5.663 2 10C2 12.176 2.923 14.182 4.39 15.641C4.77144 14.7329 5.41227 13.9574 6.23227 13.4117C7.05227 12.866 8.01501 12.5742 9 12.573H11C11.985 12.5742 12.9477 12.866 13.7677 13.4117ZM5.99989 8.00011C5.99989 5.72011 7.71989 4.00011 9.99989 4.00011C12.2799 4.00011 13.9999 5.72011 13.9999 8.00011C13.9999 10.2801 12.2799 12.0001 9.99989 12.0001C7.71989 12.0001 5.99989 10.2801 5.99989 8.00011ZM7.99989 8.00011C7.99989 9.17811 8.82189 10.0001 9.99989 10.0001C11.1779 10.0001 11.9999 9.17811 11.9999 8.00011C11.9999 6.82211 11.1779 6.00011 9.99989 6.00011C8.82189 6.00011 7.99989 6.82211 7.99989 8.00011Z" fill="#579937"/>
</svg>
