<svg width="22" height="22" viewBox="0 0 22 22" fill="none" xmlns="http://www.w3.org/2000/svg">
<path d="M1.99805 9.50098V14.0014C1.99805 16.8301 1.99805 18.2444 2.87681 19.1232C3.75558 20.002 5.16993 20.002 7.99863 20.002H11.499M19.9998 9.50098V11.5012" stroke="#579937" stroke-width="1.5" stroke-linecap="round"/>
<path d="M5.99854 16.0015H9.99893" stroke="#579937" stroke-width="1.5" stroke-linecap="round"/>
<path d="M13.9993 17.5018H21M17.4996 21.0021V14.0015" stroke="#579937" stroke-width="1.5" stroke-linecap="round"/>
<path d="M16.7943 1.00254L5.1473 1.03003C3.40897 0.945418 2.96326 2.21172 2.96326 2.83074C2.96326 3.38438 2.8878 4.19149 1.82239 5.70844C0.756974 7.22539 0.837032 7.67603 1.43782 8.7262C1.93644 9.59774 3.20469 9.93828 3.86597 9.99548C5.96638 10.0407 6.98831 8.32453 6.98831 7.1184C8.03027 10.149 10.9936 10.149 12.314 9.80246C13.6369 9.45533 14.7701 8.21251 15.0375 7.1184C15.1934 8.47808 15.6667 9.27151 17.0649 9.81667C18.5133 10.3814 19.7588 9.51824 20.3837 8.96498C21.0087 8.41169 21.4097 7.18339 20.2957 5.83336C19.5275 4.90233 19.2072 4.02524 19.1021 3.1162C19.0411 2.58947 18.9876 2.02346 18.5959 1.6633C18.0235 1.13693 17.2022 0.977221 16.7943 1.00254Z" stroke="#579937" stroke-width="1.5" stroke-linecap="round" stroke-linejoin="round"/>
</svg>
