<svg width="40" height="30" viewBox="0 0 40 30" fill="none" xmlns="http://www.w3.org/2000/svg">
<path d="M36.5898 0.264849C36.5898 0.264849 40.2901 -1.03372 39.9817 2.11995C39.879 3.41854 38.9539 7.96354 38.2344 12.8796L35.7675 27.4422C35.7675 27.4422 35.562 29.5755 33.7118 29.9466C31.8616 30.3175 29.0865 28.648 28.5725 28.277C28.1613 27.9987 20.8636 23.8247 18.2939 21.7841C17.5744 21.2276 16.7521 20.1145 18.3967 18.8159L29.1893 9.54042C30.4227 8.42734 31.6561 5.8302 26.5168 8.98388L12.1268 17.7956C12.1268 17.7956 10.4822 18.7232 7.39867 17.8884L0.717544 16.0333C0.717544 16.0333 -1.74932 14.642 2.46491 13.2506C12.7435 8.89105 25.3862 4.4388 36.5898 0.264849Z" fill="#9F394D"/>
</svg>
