<svg width="40" height="30" viewBox="0 0 40 30" fill="none" xmlns="http://www.w3.org/2000/svg">
<path d="M36.7309 1.89111C35.6482 1.07896 32.6314 0 19.9906 0C6.4446 0 4.43418 1.23905 3.78859 1.64512C0.355883 3.79523 0.0299691 13.3106 0 15.2395C0.0412075 17.7879 0.435801 26.2672 3.7861 28.364C4.42918 28.7688 6.42837 30 19.9894 30C32.6388 30 35.652 28.9262 36.7296 28.1167C39.6554 25.9223 39.9913 18.3683 40 15.2056C39.9925 12.6625 39.7365 4.14794 36.7296 1.89111H36.7309ZM35.2724 26.0056C34.8366 26.3323 32.3379 27.397 19.9894 27.397C8.0517 27.397 5.54678 26.4312 5.07352 26.1332C3.86851 25.3796 2.59607 21.38 2.49742 15.2317C2.59607 9.09761 3.88474 4.62039 5.07726 3.87462C5.55178 3.57657 8.06543 2.60304 19.9906 2.60304C32.3292 2.60304 34.8341 3.67549 35.2736 4.00347C36.3438 4.80651 37.4876 9.03384 37.5051 15.2134C37.4876 21.4907 36.3363 25.2065 35.2736 26.0043L35.2724 26.0056ZM28.1335 13.9757L16.8976 6.78872C16.5117 6.54534 16.0297 6.54013 15.6389 6.7705C15.2455 7.00217 15.0033 7.43558 15.0033 7.90412V22.2794C15.0033 22.7479 15.2455 23.1826 15.6389 23.413C15.8287 23.5249 16.041 23.5809 16.252 23.5809C16.4743 23.5809 16.699 23.5184 16.8963 23.3948L28.1322 16.2052C28.5069 15.9696 28.7354 15.5466 28.7354 15.0911C28.7354 14.6356 28.5069 14.2113 28.1322 13.9757H28.1335ZM17.502 19.9744V10.2091L25.0729 15.0911L17.502 19.9744Z" fill="#9F394D"/>
</svg>
