<svg width="40" height="30" viewBox="0 0 40 30" fill="none" xmlns="http://www.w3.org/2000/svg">
<path d="M0 4.12809C0 2.44107 1.02824 1.77648 2.29298 1.68702L8.18162 1.73104C8.53701 1.73104 8.85319 1.99801 8.97208 2.39705C10.3165 7.27918 11.9758 10.2968 13.9526 13.7134C14.0715 13.9804 14.2688 14.1125 14.4661 14.1125C14.6242 14.1125 14.7823 14.023 14.9012 13.8015L15.0201 13.313L15.0593 5.63618C15.0593 4.52712 14.585 4.34962 13.4784 4.17211C13.0433 4.08265 12.7663 3.63959 12.7663 3.19512C12.7663 3.10565 12.7663 3.01761 12.8055 2.92815C13.3595 1.0196 15.0985 0.0440218 17.5483 0.0440218L19.7616 0C21.5803 0 23.2396 0.887532 23.2396 3.50611V13.5799C23.3977 13.7134 23.5558 13.8015 23.7531 13.8015C24.0693 13.8015 24.4652 13.5799 24.7814 13.002C26.8366 9.76285 29.1687 5.90173 29.4849 3.8597C29.4849 3.77024 29.5241 3.72621 29.5646 3.63817C29.9997 2.66118 31.1063 1.99659 31.5806 1.81909C31.6603 1.77506 31.7779 1.72962 31.936 1.72962H38.0624L38.4583 1.77364C39.0514 1.77364 39.4865 2.21812 39.6838 2.61715C40.0392 3.23914 39.9608 3.90372 40 4.17069V4.48168C39.4068 8.52031 35.2964 13.046 33.5574 15.9756C33.3196 16.3306 33.202 16.6416 33.202 16.9526C33.202 17.2195 33.3209 17.4851 33.5182 17.7521L39.2892 25.9174C39.6054 26.4059 39.7635 26.9824 39.7635 27.4709C39.7635 28.935 38.538 29.7785 37.3529 29.912L36.6813 29.956H30.6738C30.5549 29.956 30.4765 30 30.3576 30C29.686 30 29.1321 29.601 28.7375 29.1565C27.4727 27.4254 26.2472 25.6504 25.0217 23.9193C24.7839 23.5643 24.7055 23.5203 24.4677 23.3428C24.1907 24.6294 23.9542 25.9614 23.6772 27.292L23.5584 28.046C23.3611 28.8455 22.8463 29.6876 21.8977 29.9105L21.3438 29.9546H17.4699C10.6327 29.9546 4.50628 19.0372 0.198564 5.41466C0.0796787 5.05964 0.00126474 4.57114 0.00126474 4.12809H0ZM23.7531 15.622C22.7249 15.622 21.579 14.956 21.579 13.7134V3.50611C21.579 2.30758 21.1048 1.86453 19.8008 1.86453L17.5483 1.95399C16.2836 1.95399 15.5715 2.17552 14.9796 2.61999C15.889 3.10849 16.7186 3.7745 16.7186 5.6376V13.4479C16.5997 15.0014 15.4539 16.0224 14.3472 16.0224C13.596 16.0224 12.9244 15.5339 12.5285 14.7359C10.7503 11.7183 9.24779 8.87816 7.94385 4.79551L7.58845 3.64101L2.33218 3.59699C1.62013 3.59699 1.69981 3.64101 1.69981 4.04147C1.69981 4.30844 1.73902 4.66345 1.77949 4.88498L2.60916 7.37007C6.91687 19.885 12.3325 28.0943 17.4699 28.0943H21.4222C21.9762 28.0943 21.9357 27.3402 22.0546 26.8958L22.8058 22.9906C22.9639 22.5916 23.0828 22.2366 23.3598 21.9256C23.676 21.5706 24.0314 21.4371 24.388 21.4371C25.1393 21.4371 25.8501 22.1031 26.3243 22.7237L29.6835 27.5163C29.9605 28.0048 30.197 28.0929 30.3551 28.0929H36.8761C37.5085 28.0929 38.0624 27.8713 38.0624 27.4269C38.0624 27.2934 38.0232 27.1159 37.9435 26.9824L32.213 18.9506C31.7387 18.2846 31.5414 17.6186 31.5414 16.954C31.5414 16.244 31.7792 15.5339 32.1738 14.912C33.8344 12.1159 37.3908 8.12269 38.2205 4.83811L38.3394 4.26157C38.3002 4.04005 38.3002 3.86254 38.2597 3.63959H32.0549C31.659 3.8171 31.3428 4.08407 31.1063 4.43908L30.8686 5.28259C29.9592 8.12269 27.4689 12.0278 25.6907 14.7345C25.0975 15.3564 24.4247 15.622 23.7531 15.622Z" fill="#9F394D"/>
</svg>
