<svg width="60" height="40" viewBox="0 0 60 40" fill="none" xmlns="http://www.w3.org/2000/svg">
<path d="M55.0963 2.52148C53.4724 1.43861 48.947 0 29.986 0C9.66691 0 6.65127 1.65206 5.68289 2.19349C0.533824 5.0603 0.0449536 17.7475 0 20.3193C0.0618113 23.7171 0.653701 35.023 5.67914 37.8187C6.64377 38.3584 9.64256 40 29.9841 40C48.9583 40 53.478 38.5683 55.0944 37.4889C59.483 34.5631 59.9869 24.4911 60 20.2742C59.9888 16.8833 59.6048 5.53059 55.0944 2.52148H55.0963ZM52.9086 34.6742C52.2549 35.1098 48.5069 36.5293 29.9841 36.5293C12.0775 36.5293 8.32017 35.2417 7.61028 34.8443C5.80277 33.8395 3.89411 28.5067 3.74614 20.3089C3.89411 12.1302 5.82712 6.16052 7.6159 5.16616C8.32766 4.76876 12.0981 3.47072 29.986 3.47072C48.4937 3.47072 52.2511 4.90065 52.9104 5.33796C54.5157 6.40868 56.2314 12.0451 56.2576 20.2846C56.2314 28.6542 54.5044 33.6087 52.9104 34.6725L52.9086 34.6742ZM42.2002 18.6343L25.3464 9.05163C24.7676 8.72712 24.0446 8.72017 23.4583 9.02733C22.8683 9.33623 22.5049 9.9141 22.5049 10.5388V29.7059C22.5049 30.3306 22.8683 30.9102 23.4583 31.2174C23.743 31.3666 24.0614 31.4412 24.378 31.4412C24.7114 31.4412 25.0485 31.3579 25.3445 31.1931L42.1984 21.6069C42.7603 21.2928 43.1031 20.7289 43.1031 20.1215C43.1031 19.5141 42.7603 18.9484 42.1984 18.6343H42.2002ZM26.2529 26.6325V13.6121L37.6093 20.1215L26.2529 26.6325Z" fill="#9F394D"/>
</svg>
